<svg width="300" height="300" viewBox="0 0 300 300" fill="none" xmlns="http://www.w3.org/2000/svg">
<rect width="300" height="300" rx="150" fill="#F2F7F8"/>
<g style="mix-blend-mode:luminosity">
<path d="M184.955 207.999C182.017 207.999 179.635 205.619 179.635 202.683V98.4855C179.635 95.5494 182.017 93.1693 184.955 93.1693H191.68C194.618 93.1693 197 95.5494 197 98.4855V202.683C197 205.619 194.618 207.999 191.68 207.999H184.955Z" fill="#3C3B34"/>
<path d="M103.243 93C100.955 93 98.9229 94.4621 98.1974 96.6306L63.2786 200.998C62.1266 204.441 64.691 208 68.3244 208H75.0749C77.4 208 79.4557 206.491 80.1514 204.274L101.713 135.563C104.829 125.636 118.885 125.626 122.015 135.548L143.696 204.282C144.394 206.495 146.448 208 148.77 208H155.441C159.075 208 161.639 204.441 160.487 200.998L125.568 96.6306C124.843 94.4621 122.811 93 120.522 93H103.243Z" fill="#3C3B34"/>
</g>
<path d="M236.5 117.5C236.5 120.16 236.5 122.5 236.5 125.5C236.5 128.5 235.56 131.34 233.64 133.02C231.76 134.66 229.22 135.48 226.02 135.48C222.7 135.48 220 134.6 217.92 132.84C215.84 131.08 214.72 128.74 214.56 125.82C214.496 125.245 214.449 124.452 214.419 123.649C214.378 122.546 215.275 121.65 216.38 121.65H220.888C221.974 121.65 222.857 122.516 222.914 123.601C222.941 124.128 222.977 124.632 223.02 124.92C223.14 125.96 223.46 126.78 223.98 127.38C224.5 127.94 225.18 128.22 226.02 128.22C226.82 128.22 227.48 127.94 228 127.38C228.52 126.82 229.02 126 229.02 124.5C229.02 123 229.02 119.5 229.02 117.5C229.02 115.5 228.4 114.72 227.88 114.24C227.4 113.72 226.78 113.46 226.02 113.46C225.788 113.46 225.528 113.524 225.27 113.621C224.328 113.973 223.214 113.94 222.513 113.219L220.585 111.238C219.884 110.518 219.826 109.39 220.45 108.602L225.578 102.12C226.097 101.465 225.63 100.5 224.794 100.5H217.232C216.147 100.5 215.259 99.6335 215.233 98.548L215.149 95.048C215.122 93.925 216.025 93 217.148 93L235.196 93.0001C236.294 93.0001 237.187 93.8858 237.196 94.9841L237.234 99.7829C237.238 100.247 237.08 100.697 236.789 101.057L231.406 107.707C230.879 108.358 231.333 109.497 232.095 109.845C232.884 110.206 233.805 110.814 234.66 111.84C235.5 112.848 236.5 114.84 236.5 117.5Z" fill="#373C3D"/>
</svg>
